<?xml version="1.0" encoding="UTF-8" standalone="no"?>
<svg
   width="32"
   height="32"
   viewBox="0 0 32 32"
   fill="none"
   version="1.1"
   id="svg4"
   sodipodi:docname="I2.svg"
   inkscape:version="1.2.1 (9c6d41e410, 2022-07-14)"
   xmlns:inkscape="http://www.inkscape.org/namespaces/inkscape"
   xmlns:sodipodi="http://sodipodi.sourceforge.net/DTD/sodipodi-0.dtd"
   xmlns="http://www.w3.org/2000/svg"
   xmlns:svg="http://www.w3.org/2000/svg">
  <defs
     id="defs8" />
  <sodipodi:namedview
     id="namedview6"
     pagecolor="#ffffff"
     bordercolor="#000000"
     borderopacity="0.25"
     inkscape:showpageshadow="2"
     inkscape:pageopacity="0.0"
     inkscape:pagecheckerboard="0"
     inkscape:deskcolor="#d1d1d1"
     showgrid="false"
     inkscape:zoom="16.15625"
     inkscape:cx="14.514507"
     inkscape:cy="16.030948"
     inkscape:window-width="1366"
     inkscape:window-height="697"
     inkscape:window-x="-8"
     inkscape:window-y="-8"
     inkscape:window-maximized="1"
     inkscape:current-layer="svg4" />
  <path
     d="M12.5 10.7975V12.5H10.7975C10.3482 12.5058 9.91321 12.3416 9.57986 12.0402C9.24651 11.7389 9.03938 11.3227 9 10.875C8.98133 10.624 9.01702 10.3719 9.10465 10.136C9.19227 9.9 9.32976 9.68572 9.50774 9.50774C9.68572 9.32976 9.9 9.19227 10.136 9.10465C10.3719 9.01702 10.624 8.98133 10.875 9C11.3227 9.03938 11.7389 9.24651 12.0402 9.57986C12.3416 9.91321 12.5058 10.3482 12.5 10.7975ZM9 21.125C8.98133 21.376 9.01702 21.6281 9.10465 21.864C9.19227 22.1 9.32976 22.3143 9.50774 22.4923C9.68572 22.6702 9.9 22.8077 10.136 22.8954C10.3719 22.983 10.624 23.0187 10.875 23C11.3218 22.9607 11.7373 22.7543 12.0385 22.422C12.3398 22.0897 12.5046 21.656 12.5 21.2075V19.5H10.7975C10.3482 19.4942 9.91321 19.6584 9.57986 19.9598C9.24651 20.2611 9.03938 20.6773 9 21.125ZM23 10.875C23.0187 10.624 22.983 10.3719 22.8954 10.136C22.8077 9.9 22.6702 9.68572 22.4923 9.50774C22.3143 9.32976 22.1 9.19227 21.864 9.10465C21.6281 9.01702 21.376 8.98133 21.125 9C20.6782 9.03932 20.2627 9.24574 19.9615 9.57803C19.6602 9.91032 19.4954 10.344 19.5 10.7925V12.5H21.2025C21.6518 12.5058 22.0868 12.3416 22.4201 12.0402C22.7535 11.7389 22.9606 11.3227 23 10.875ZM28 8V24C28 25.0609 27.5786 26.0783 26.8284 26.8284C26.0783 27.5786 25.0609 28 24 28H8C6.93913 28 5.92172 27.5786 5.17157 26.8284C4.42143 26.0783 4 25.0609 4 24V8C4 6.93913 4.42143 5.92172 5.17157 5.17157C5.92172 4.42143 6.93913 4 8 4H24C25.0609 4 26.0783 4.42143 26.8284 5.17157C27.5786 5.92172 28 6.93913 28 8ZM19.5 17.5V14.5H21.1725C23.2213 14.5 24.9488 12.89 24.9988 10.8438C25.0116 10.3356 24.921 9.8301 24.7325 9.35802C24.544 8.88594 24.2614 8.45711 23.902 8.09761C23.5426 7.7381 23.1139 7.45542 22.6419 7.26673C22.1699 7.07805 21.6644 6.9873 21.1562 7C19.11 7.05125 17.5 8.77875 17.5 10.8275V12.5H14.5V10.8275C14.5 8.77875 12.89 7.05125 10.8438 7C10.3355 6.98713 9.82988 7.07775 9.35772 7.26636C8.88555 7.45497 8.45667 7.73762 8.09715 8.09715C7.73762 8.45667 7.45497 8.88555 7.26636 9.35772C7.07775 9.82988 6.98713 10.3355 7 10.8438C7.05125 12.89 8.77875 14.5 10.8275 14.5H12.5V17.5H10.8275C8.77875 17.5 7.05125 19.11 7 21.1562C6.98713 21.6645 7.07775 22.1701 7.26636 22.6423C7.45497 23.1145 7.73762 23.5433 8.09715 23.9029C8.45667 24.2624 8.88555 24.545 9.35772 24.7336C9.82988 24.9223 10.3355 25.0129 10.8438 25C12.89 24.95 14.5 23.2225 14.5 21.1737V19.5H17.5V21.1725C17.5 23.2213 19.11 24.9488 21.1562 24.9988C21.6644 25.0116 22.1699 24.921 22.642 24.7325C23.1141 24.544 23.5429 24.2614 23.9024 23.902C24.2619 23.5426 24.5446 23.1139 24.7333 22.6419C24.922 22.1699 25.0127 21.6644 25 21.1562C24.95 19.11 23.2225 17.5 21.1737 17.5H19.5ZM14.5 17.5H17.5V14.5H14.5V17.5ZM19.5 21.25C19.5 21.5961 19.6026 21.9345 19.7949 22.2222C19.9872 22.51 20.2605 22.7343 20.5803 22.8668C20.9001 22.9992 21.2519 23.0339 21.5914 22.9664C21.9309 22.8988 22.2427 22.7322 22.4874 22.4874C22.7322 22.2427 22.8988 21.9309 22.9664 21.5914C23.0339 21.2519 22.9992 20.9001 22.8668 20.5803C22.7343 20.2605 22.51 19.9872 22.2222 19.7949C21.9345 19.6026 21.5961 19.5 21.25 19.5H19.5V21.25Z"
     fill="#CC1F1F"
     id="path2" />
  <path
     style="fill:#0000ff;stroke-width:0;paint-order:stroke markers fill"
     d="M 7.0669218,27.855551 C 5.998831,27.597073 4.9556435,26.760648 4.4720635,25.775002 4.0009002,24.814664 4.0232108,25.30054 4.0232108,16 c 0,-9.3024482 -0.022547,-8.8126053 0.4501341,-9.7794971 C 4.8469488,5.4562774 5.4669646,4.8470443 6.2569323,4.4679335 6.5773217,4.3141766 6.9870576,4.1581766 7.1674566,4.121267 7.3938905,4.0749387 10.134613,4.0544419 16.01852,4.0550735 c 7.370929,7.912e-4 8.576497,0.01351 8.918329,0.094088 1.06219,0.2503847 2.10884,1.0875005 2.589806,2.0713414 0.472681,0.9668918 0.450134,0.4770489 0.450134,9.7794971 0,7.288949 -0.01179,8.356305 -0.09686,8.768144 -0.248681,1.203942 -0.982699,2.175256 -2.072162,2.742057 -0.885234,0.46055 -0.284081,0.434309 -9.838717,0.429461 -6.771407,-0.0034 -8.6417833,-0.02111 -8.9021302,-0.08411 z M 11.53553,24.944499 c 1.34109,-0.28413 2.465627,-1.366214 2.863025,-2.754944 0.06569,-0.229556 0.1079,-0.71839 0.129606,-1.500967 l 0.03219,-1.160542 H 16 17.43965 l 0.03219,1.160542 c 0.03547,1.278877 0.09126,1.566532 0.441253,2.275128 0.411837,0.833806 1.231282,1.54835 2.136804,1.86326 1.748405,0.608035 3.781493,-0.234715 4.570799,-1.894674 0.13759,-0.289362 0.280527,-0.673712 0.317636,-0.854111 0.09761,-0.474528 0.08282,-1.327709 -0.03064,-1.767516 -0.30594,-1.185856 -1.283412,-2.22032 -2.501497,-2.64735 -0.353878,-0.12406 -0.549516,-0.143932 -1.624759,-0.165035 L 19.558999,17.4743 v -1.479896 -1.479896 l 1.036751,-0.0011 c 0.653024,-6.75e-4 1.189438,-0.03344 1.449282,-0.08851 1.076181,-0.228093 2.078058,-1.00338 2.563745,-1.983917 0.293405,-0.592341 0.39543,-1.017816 0.396296,-1.652659 C 25.00604,10.07622 24.92209,9.7012068 24.61989,9.0676983 24.426112,8.66148 24.2687,8.44193 23.929141,8.1042804 23.214333,7.3934928 22.472174,7.0532075 21.493166,6.987368 19.711712,6.8675633 18.111379,8.0284546 17.601445,9.8104449 c -0.06569,0.2295561 -0.1079,0.7183901 -0.129606,1.5009671 l -0.03219,1.160542 H 16 14.56035 L 14.52816,11.311412 C 14.49245,10.023901 14.437806,9.7467059 14.07485,9.0118872 13.80592,8.4674285 13.145068,7.765801 12.626692,7.4743763 11.98282,7.1123986 11.502411,6.9935562 10.70793,6.9997166 9.9198121,7.0058276 9.4863348,7.1167829 8.8510638,7.4750099 8.0662229,7.917579 7.3226355,8.8956772 7.0923132,9.7884314 c -0.1263892,0.4898976 -0.1263892,1.4109956 0,1.9008936 0.3533117,1.369474 1.5758825,2.499369 2.9896358,2.763009 0.18337,0.0342 0.789173,0.06217 1.346228,0.06217 h 1.012829 V 16 17.485493 l -1.067698,0.0015 c -1.118883,0.0016 -1.4054825,0.03935 -1.9651842,0.258984 -1.1329139,0.44456 -2.0232102,1.430534 -2.3158106,2.564684 -0.1263892,0.489898 -0.1263892,1.410996 0,1.900894 0.498581,1.932553 2.4770786,3.149486 4.4432168,2.732931 z"
     id="path183" />
  <path
     style="fill:#0000ff;stroke-width:0;paint-order:stroke markers fill"
     d="m 10.324377,22.909934 c -0.8058105,-0.223452 -1.3351157,-0.95504 -1.2760315,-1.763688 0.045751,-0.626162 0.3878035,-1.123202 0.9959285,-1.447194 0.236421,-0.125958 0.3636,-0.141241 1.334021,-0.160308 l 1.072686,-0.02108 -0.02046,1.134783 c -0.01996,1.107064 -0.02459,1.141805 -0.18946,1.422263 -0.400567,0.681397 -1.205885,1.032325 -1.916682,0.83522 z"
     id="path185" />
  <path
     style="fill:#0000ff;stroke-width:0;paint-order:stroke markers fill"
     d="M 14.545455,16 V 14.514507 H 16 17.454545 V 16 17.485493 H 16 14.545455 Z"
     id="path187" />
  <path
     style="fill:#0000ff;stroke-width:0;paint-order:stroke markers fill"
     d="M 10.267375,12.386502 C 9.7213244,12.19137 9.4281372,11.923079 9.1881816,11.398947 9.0514221,11.100225 9.0272782,10.972388 9.0479369,10.656383 9.1629718,8.8967437 11.494948,8.4314246 12.282105,10.011042 c 0.152197,0.30542 0.158901,0.364059 0.158901,1.389892 v 1.07102 l -0.974855,-0.0027 c -0.633764,-0.0018 -1.053203,-0.03071 -1.198776,-0.08273 z"
     id="path189" />
  <path
     style="fill:#0000ff;stroke-width:0;paint-order:stroke markers fill"
     d="m 19.558994,11.406047 c 0,-1.031322 0.0066,-1.08941 0.158901,-1.395005 0.570754,-1.1453527 2.120864,-1.3058655 2.882265,-0.2984567 0.672082,0.8892317 0.385684,2.0395447 -0.644434,2.5883627 -0.236274,0.12588 -0.363723,0.141246 -1.329034,0.160232 l -1.067698,0.021 z"
     id="path191" />
  <path
     style="fill:#0000ff;stroke-width:0;paint-order:stroke markers fill"
     d="m 20.904261,22.927525 c -0.551268,-0.131469 -0.993799,-0.496247 -1.228259,-1.012453 -0.09677,-0.213061 -0.114497,-0.415278 -0.115648,-1.319327 l -0.0014,-1.067699 h 0.948147 c 1.215522,0 1.483986,0.07203 1.929693,0.517736 0.401244,0.401244 0.557603,0.81343 0.509558,1.343274 -0.0921,1.01572 -1.08802,1.766009 -2.042131,1.538469 z"
     id="path193" />
</svg>
