<?xml version="1.0" encoding="UTF-8" standalone="no"?>
<svg
   width="32"
   height="32"
   viewBox="0 0 32 32"
   fill="none"
   version="1.1"
   id="svg4"
   sodipodi:docname="I4.svg"
   inkscape:version="1.2.1 (9c6d41e410, 2022-07-14)"
   xmlns:inkscape="http://www.inkscape.org/namespaces/inkscape"
   xmlns:sodipodi="http://sodipodi.sourceforge.net/DTD/sodipodi-0.dtd"
   xmlns="http://www.w3.org/2000/svg"
   xmlns:svg="http://www.w3.org/2000/svg">
  <defs
     id="defs8" />
  <sodipodi:namedview
     id="namedview6"
     pagecolor="#ffffff"
     bordercolor="#000000"
     borderopacity="0.25"
     inkscape:showpageshadow="2"
     inkscape:pageopacity="0.0"
     inkscape:pagecheckerboard="0"
     inkscape:deskcolor="#d1d1d1"
     showgrid="false"
     inkscape:zoom="16.15625"
     inkscape:cx="14.514507"
     inkscape:cy="16.030948"
     inkscape:window-width="1366"
     inkscape:window-height="697"
     inkscape:window-x="-8"
     inkscape:window-y="-8"
     inkscape:window-maximized="1"
     inkscape:current-layer="svg4" />
  <path
     d="M16 3C13.4288 3 10.9154 3.76244 8.77759 5.1909C6.63975 6.61935 4.97351 8.64968 3.98957 11.0251C3.00563 13.4006 2.74819 16.0144 3.2498 18.5362C3.75141 21.0579 4.98953 23.3743 6.80762 25.1924C8.6257 27.0105 10.9421 28.2486 13.4638 28.7502C15.9856 29.2518 18.5995 28.9944 20.9749 28.0104C23.3503 27.0265 25.3807 25.3603 26.8091 23.2224C28.2376 21.0846 29 18.5712 29 16C28.9964 12.5533 27.6256 9.24882 25.1884 6.81163C22.7512 4.37445 19.4467 3.00364 16 3ZM6.20376 21H11.3063L13.4313 26.6975C11.8877 26.3234 10.443 25.6207 9.19574 24.6375C7.94846 23.6542 6.92792 22.4135 6.20376 21ZM16 19.5C15.6044 19.5 15.2178 19.3827 14.8889 19.1629C14.56 18.9432 14.3036 18.6308 14.1522 18.2654C14.0009 17.8999 13.9613 17.4978 14.0384 17.1098C14.1156 16.7219 14.3061 16.3655 14.5858 16.0858C14.8655 15.8061 15.2219 15.6156 15.6098 15.5384C15.9978 15.4613 16.3999 15.5009 16.7654 15.6522C17.1308 15.8036 17.4432 16.06 17.6629 16.3889C17.8827 16.7178 18 17.1044 18 17.5C18 18.0304 17.7893 18.5391 17.4142 18.9142C17.0391 19.2893 16.5304 19.5 16 19.5ZM18.5575 26.6987L20.6938 21H25.7963C25.0711 22.415 24.0489 23.6568 22.7996 24.6403C21.5502 25.6239 20.1032 26.326 18.5575 26.6987ZM16 12C11.971 12.0049 8.07391 13.4366 5.00001 16.0413V16C5.00001 13.0826 6.15893 10.2847 8.22183 8.22183C10.2847 6.15893 13.0826 5 16 5C18.9174 5 21.7153 6.15893 23.7782 8.22183C25.8411 10.2847 27 13.0826 27 16V16.0413C23.9261 13.4366 20.029 12.0049 16 12Z"
     fill="#CC1F1F"
     id="path2" />
  <path
     style="fill:#0000ff;stroke-width:0;paint-order:stroke markers fill"
     d="M 15.44294,28.956504 C 11.272423,28.751465 7.5053368,26.610316 5.1707907,23.117988 4.6932,22.403544 4.0198081,21.016959 3.7135501,20.117376 2.6179158,16.89913 2.8640009,13.344093 4.3961624,10.256106 6.3209806,6.3767395 9.9419822,3.7736636 14.278991,3.1515095 c 0.88761,-0.1273296 2.570434,-0.1259289 3.454084,0.00288 4.362149,0.6358422 8.008411,3.2795584 9.905784,7.1821725 1.495207,3.07542 1.730976,6.467031 0.673043,9.681984 -1.714053,5.208846 -6.393995,8.719277 -11.909581,8.933395 -0.323404,0.01255 -0.755126,0.01461 -0.959381,0.0046 z m -2.034,-2.387839 c -0.0197,-0.0766 -0.493939,-1.364797 -1.053869,-2.862669 l -1.018054,-2.723404 -2.5737309,-0.01615 c -1.6510476,-0.01036 -2.573731,0.0056 -2.573731,0.04452 0,0.03337 0.1375587,0.293567 0.3056861,0.578213 1.4095837,2.386475 3.6520438,4.150053 6.3171378,4.968098 0.599007,0.183863 0.641122,0.184668 0.596561,0.01139 z m 5.980986,-0.08443 c 2.5803,-0.830297 4.828768,-2.643588 6.147531,-4.957717 0.150143,-0.263467 0.272988,-0.500901 0.272988,-0.527631 0,-0.02673 -1.158551,-0.04133 -2.574556,-0.03245 l -2.574557,0.01615 -0.985246,2.630561 c -0.541885,1.446808 -1.026436,2.735009 -1.07678,2.862669 -0.11731,0.29747 -0.107993,0.297569 0.79062,0.0084 z m -2.413411,-7.219472 c 0.717444,-0.392418 1.072449,-1.050887 1.021787,-1.895221 -0.08575,-1.429023 -1.505408,-2.281962 -2.857721,-1.716929 -0.316823,0.132377 -0.768714,0.575568 -0.951225,0.932912 -0.209042,0.409289 -0.261631,1.119185 -0.115393,1.557711 0.144008,0.431846 0.507807,0.876651 0.8944,1.093557 0.439507,0.246595 0.637539,0.290937 1.172562,0.262551 0.368423,-0.01955 0.520511,-0.06224 0.83559,-0.234581 z M 5.7730185,15.483451 c 6.0491995,-4.583732 14.4067075,-4.582259 20.4587225,0.0036 0.422476,0.320128 0.782295,0.567895 0.799598,0.550592 0.05735,-0.05735 -0.110813,-1.667555 -0.239878,-2.296836 C 26.195644,10.835787 24.37237,8.2150209 21.865443,6.6601752 20.569576,5.8564537 19.311639,5.3839911 17.702128,5.0964964 17.086206,4.9864789 14.918107,4.9859748 14.297872,5.0957048 12.006402,5.5011051 10.022605,6.4744177 8.4459794,7.9668251 6.3506124,9.9502644 5.1888459,12.460758 4.9791404,15.458414 c -0.02322,0.331915 -0.025856,0.603482 -0.00586,0.603482 0.019997,0 0.3798789,-0.260301 0.7997381,-0.578445 z"
     id="path183" />
</svg>
